<?xml version="1.0" encoding="utf-8"?>
<svg xmlns="http://www.w3.org/2000/svg" viewBox="206.68 275.55 453.5938 314.69" width="453.594px" height="314.69px" preserveAspectRatio="none"><defs><style>.d{font-family:Heebo-Thin, Heebo;font-size:36.84px;letter-spacing:.2em;}.e{fill:none;stroke-width:8px;}.e,.f,.g,.h{stroke:#000;stroke-miterlimit:10;}.f{fill:#121212;}.f,.g,.h{stroke-width:4px;}.g{fill:#131313;}.h{fill:#171717;}</style></defs><g id="b"><g id="c"><g><g><path class="g" d="M344.22,439.71c0-16.98,.09-33.97-.07-50.95-.03-3.7,.65-5.32,4.9-5.28,22.98,.21,45.96,.1,68.94,.1,.83,0,1.66,.02,2.5,.04,1.05,.04,2.17,.32,2.29,1.46,.16,1.49-1.14,1.93-2.3,2.09-1.31,.18-2.66,.13-3.99,.13-21.15,0-42.3,.11-63.45-.09-3.97-.04-5,1.07-4.96,4.99,.21,18.31,.2,36.63,0,54.95-.04,3.67,.77,4.76,4.6,4.71,16.98-.23,33.97-.1,50.96-.1,1,0,2-.06,3,.02,1.5,.12,3.27,.24,3.19,2.27-.07,1.76-1.71,1.75-3.04,1.81-1.16,.05-2.33,.02-3.5,.02-16.82,0-33.64,.11-50.46-.09-3.73-.04-4.86,.93-4.75,4.72,.28,9.32,.27,18.65,0,27.97-.1,3.57,1,4.38,4.44,4.35,21.98-.16,43.96-.08,65.94-.07,1.33,0,2.67,0,3.98,.15,1.11,.13,1.73,.91,1.77,2.05,.04,1.25-.72,1.77-1.84,1.84-1,.07-2,.07-2.99,.07-23.48,0-46.96-.08-70.44,.09-3.76,.03-4.84-1.08-4.81-4.8,.17-17.48,.08-34.97,.07-52.45Z"/><path class="f" d="M214.85,389.23v36.33c0,21.98,.03,43.97-.05,65.95,0,1.91,1.13,5.11-2.19,5.08-3.03-.03-1.74-3.08-1.74-4.75-.09-34.64-.07-69.28-.06-103.92,0-5.36,.44-5.59,5.23-2.76,21.14,12.5,42.27,25.03,63.41,37.53,2.26,1.34,4.58,2.56,7.61,4.26,0-12.13,0-23.66,0-35.2,0-2-.02-4,.03-5.99,.03-1.35,.69-2.21,2.13-2.24,1.63-.04,1.83,1.09,1.84,2.34,0,.83,0,1.67,0,2.5,0,34.47,0,68.95,0,103.42,0,1,.02,2-.03,3-.05,1.08-.41,1.98-1.7,1.97-1.13,0-1.97-.56-2.11-1.69-.17-1.31-.16-2.65-.16-3.98,0-18.49,0-36.97,0-55.46,0-2.1,.3-4-2.23-5.47-23.1-13.37-46.09-26.91-69.99-40.91Z"/><path d="M501.1,281.97c-6.01,6.82-14.52,7.27-22.59,8.79-1.63,.31-3.3,.4-4.96,.5-6.6,.41-11.05,2.56-11.8,10.34-.5,5.21-3.78,9.84-7.33,13.88-3.77,4.29-8.2,7.84-9.86,13.95-1.17,4.31-5.68,5.7-10.22,5.36-4.21-.31-7.51-2.28-8.49-6.43-1.08-4.56-4.13-7.43-7.26-10.37-5.48-5.16-9.32-11.45-10.37-18.82-.74-5.16-3.72-6.66-7.87-7.35-6.21-1.04-12.54-1.36-18.64-3.09-4.49-1.27-8.8-2.91-11.8-6.79-.24-1.16,.2-1.61,1.37-1.31,8.95,5.57,19.24,5.63,29.19,7.03,2.97,.42,5.86,1.01,8.68,1.99,2.57,.89,4.77,2.73,4.69,5.26-.32,10.22,4.37,17.78,11.7,24.19,.73,.64,1.2,1.56,1.92,2.52,2.66-3.75,5.23-7.36,7.99-11.25,2.11,3.26,3.95,6.2,5.9,9.07,.73,1.07,1.28,2.09,2.98,.5,7.17-6.67,12.56-14.1,12.49-24.45-.03-4.48,3.39-5.96,6.86-6.61,6.83-1.27,13.74-2.11,20.62-3.08,5.46-.77,10.65-2.31,15.4-5.19,1.16-.26,1.62,.19,1.37,1.36Z"/><path class="h" d="M613.21,441.22c0-16.32-.11-32.65,.08-48.97,.04-3.71-.64-5.17-4.79-5.03-10.32,.34-20.65,.14-30.98,.09-1.89,0-4.78,.68-4.91-1.97-.14-2.88,2.81-2.15,4.64-2.15,25.32-.04,50.64-.03,75.96-.02,.99,0,2,.06,2.98,.2,1.07,.15,1.87,.66,1.85,1.92-.03,1.27-.9,1.78-1.93,1.85-2.32,.15-4.65,.2-6.98,.2-8.99,.02-18,.22-26.98-.09-4-.13-4.98,1.1-4.96,5.01,.16,32.65,.09,65.29,.09,97.94,0,1.17,.08,2.34-.03,3.5-.11,1.21,.4,2.95-1.61,3.06-2.06,.11-2.38-1.47-2.39-3.05-.04-4.66-.02-9.33-.02-13.99,0-12.83,0-25.65,0-38.48Z"/><path class="f" d="M463.86,497.88c-1.84-.17-4.03,.27-6.06-.82-1.26-.67-2.39-1.36-1.74-3.03,.54-1.36,1.71-1.28,2.94-1.15,16.25,1.71,22.57-2.66,26.84-18.52,6.71-24.91,13.3-49.86,20.16-74.74,3.58-12.97,13.93-19.56,27.2-17.84,1.3,.17,2.58,.59,3.83,1.02,1,.34,1.75,1.14,1.5,2.23-.3,1.25-1.24,1.94-2.62,1.66-1.45-.3-2.87-.84-4.32-.94-11.68-.81-19.23,4.77-22.46,16.68-6.74,24.91-13.41,49.83-20.12,74.75-3.72,13.8-11.91,20.61-25.15,20.7Z"/><path d="M498.68,288.12c-7.07,12.25-18.76,8.61-29.51,8.33,9.27-4.56,20.62-2.09,29.51-8.33Z"/><path d="M400.8,296.12c-16.45,2.09-25.04,.87-29.79-9.18,9.24,7.31,20.36,5.04,29.79,9.18Z"/><path d="M466.42,301.16c9.1-2.18,17.28,2.87,25.41-1.71-4.55,6.73-6.04,6.83-25.41,1.71Z"/><path d="M483.86,310.1c-7.84,7.07-12.88-1.09-19.07-3.3,6.71-1.18,12.31,4.41,19.07,3.3Z"/><path d="M386.17,309.92c6.85,1.23,12.68-3.88,19.42-3.3-6.18,2.93-11.59,10.59-19.42,3.3Z"/><path d="M408.54,312.87q-11.47,7.43-17.46,3.73c7.04,.61,11.59-3.93,17.46-3.73Z"/><path d="M462.04,312.86c5.75-.56,10.02,4.55,15.72,4.16-7.19,6.07-10.73-1.82-15.72-4.16Z"/><path d="M460.02,318.6c3.91-.41,6.8,.8,9.24,3.08,.86,.8,2.33,1.77,1.17,3.26-1.26,1.62-2.36,.2-3.31-.53-2.29-1.78-4.5-3.66-7.1-5.8Z"/><path d="M410.62,318.7c-2.93,2.34-5.17,4.23-7.52,5.95-.78,.57-1.82,1.95-2.88,.47-.78-1.1-.12-2.16,.76-3.04,2.44-2.43,5.29-3.77,9.64-3.37Z"/><path d="M413.82,323.02c-.91,2.17-3.04,2.96-4.64,4.27-.78,.64-1.82,2.15-2.87,1.05-1.28-1.33,.1-2.6,1.19-3.16,1.94-1,3.58-3.09,6.32-2.16Z"/><path d="M460.09,323.67c.6,.2,1.31,.25,1.78,.62,1.3,1.03,4.08,1.99,2.75,3.74-1.36,1.79-2.8-.99-4.22-1.68-.85-.41-1.53-1.16-2.29-1.76-.06-1.88,1.02-1.28,1.99-.91Z"/><path d="M411.74,331.59c.92-2.9,2.77-3.76,5.98-4.66-1.81,2.76-3.06,4.43-5.98,4.66Z"/><path d="M457.72,331.87c-1.49-1.15-2.97-2.3-5.19-4.01,3.5-.39,5.16,.61,5.19,4.01Z"/><path d="M501.1,281.97l-1.37-1.36c1.27-1.33,2.53-2.66,4.4-4.61-.07,3.21-1.32,4.71-3.02,5.97Z"/><path d="M371.28,280.62c-.46,.44-.91,.87-1.37,1.31-1.61-1.16-2.74-2.61-3.05-6.38,2.06,2.36,3.24,3.71,4.42,5.07Z"/><path d="M453.41,333.63c-1.46-.1-2.31-1.19-3.18-2.33,.86-1.12,1.65-.45,2.41,.09,.64,.45,1.52,.81,.77,2.24Z"/><path d="M419.88,330.43c-1.1,2.81-2.16,3.4-3.93,3.99,.37-2.2,1.52-2.77,3.93-3.99Z"/><path d="M460.09,323.67c-.68,.26-1.6,0-1.99,.91-.84-.34-1.86-.4-2.35-1.5,1.65-.95,3.03-.5,4.34,.58Z"/><path d="M377.1,300.08c4.55,6.74,6.04,6.83,25.41,1.71-9.1-2.17-17.28,2.88-25.41-1.71Z"/><text class="d" transform="translate(206.68 581.24)" style="white-space: pre;"><tspan x="0" y="0">BUSINESS  CENTER</tspan></text></g></g></g></g></svg>